<svg width="22" height="22" viewBox="0 0 22 22" fill="none" xmlns="http://www.w3.org/2000/svg">
<path fill-rule="evenodd" clip-rule="evenodd" d="M11 2C6.02944 2 2 6.02944 2 11C2 15.9706 6.02944 20 11 20C15.9706 20 20 15.9706 20 11C20 6.02944 15.9706 2 11 2ZM0 11C0 4.92487 4.92487 0 11 0C17.0751 0 22 4.92487 22 11C22 17.0751 17.0751 22 11 22C4.92487 22 0 17.0751 0 11ZM11 5C11.2761 5 11.5 5.22386 11.5 5.5V7H13.5C13.7761 7 14 7.22386 14 7.5C14 7.77614 13.7761 8 13.5 8H11.5V10.5H12.25C12.8467 10.5 13.419 10.7371 13.841 11.159C14.2629 11.581 14.5 12.1533 14.5 12.75C14.5 13.3467 14.2629 13.919 13.841 14.341C13.419 14.7629 12.8467 15 12.25 15H11.5V16.5C11.5 16.7761 11.2761 17 11 17C10.7239 17 10.5 16.7761 10.5 16.5V15H8C7.72386 15 7.5 14.7761 7.5 14.5C7.5 14.2239 7.72386 14 8 14H10.5V11.5H9.75C9.15326 11.5 8.58097 11.2629 8.15901 10.841C7.73705 10.419 7.5 9.84674 7.5 9.25C7.5 8.65326 7.73705 8.08097 8.15901 7.65901C8.58097 7.23705 9.15326 7 9.75 7H10.5V5.5C10.5 5.22386 10.7239 5 11 5ZM10.5 8H9.75C9.41848 8 9.10054 8.1317 8.86612 8.36612C8.6317 8.60054 8.5 8.91848 8.5 9.25C8.5 9.58152 8.6317 9.89946 8.86612 10.1339C9.10054 10.3683 9.41848 10.5 9.75 10.5H10.5V8ZM11.5 11.5V14H12.25C12.5815 14 12.8995 13.8683 13.1339 13.6339C13.3683 13.3995 13.5 13.0815 13.5 12.75C13.5 12.4185 13.3683 12.1005 13.1339 11.8661C12.8995 11.6317 12.5815 11.5 12.25 11.5H11.5Z" fill="#2F363D"/>
</svg>
