<svg width="32" height="20" viewBox="0 0 32 20" fill="none" xmlns="http://www.w3.org/2000/svg">
<path d="M27 1H4.25C2.45507 1 1 1.89543 1 3V17C1 18.1046 2.45507 19 4.25 19H27C28.7949 19 30.25 18.1046 30.25 17V3C30.25 1.89543 28.7949 1 27 1Z" stroke="#2F363D" stroke-width="2" stroke-linecap="round" stroke-linejoin="round"/>
<path d="M14.4583 16V14.6667C14.4583 13.9594 14.1774 13.2811 13.6773 12.781C13.1772 12.281 12.4989 12 11.7917 12H6.45833C5.75109 12 5.07281 12.281 4.57271 12.781C4.07262 13.2811 3.79166 13.9594 3.79166 14.6667V16" stroke="#2F363D" stroke-width="2" stroke-linecap="round" stroke-linejoin="round"/>
<path d="M9.125 9.33333C10.5978 9.33333 11.7917 8.13943 11.7917 6.66667C11.7917 5.19391 10.5978 4 9.125 4C7.65224 4 6.45834 5.19391 6.45834 6.66667C6.45834 8.13943 7.65224 9.33333 9.125 9.33333Z" stroke="#2F363D" stroke-width="2" stroke-linecap="round" stroke-linejoin="round"/>
</svg>
