<?xml version="1.0" standalone="no"?>
<!DOCTYPE svg PUBLIC "-//W3C//DTD SVG 20010904//EN"
 "http://www.w3.org/TR/2001/REC-SVG-20010904/DTD/svg10.dtd">
<svg version="1.0" xmlns="http://www.w3.org/2000/svg"
 width="49.000000pt" height="53.000000pt" viewBox="0 0 49.000000 53.000000"
 preserveAspectRatio="xMidYMid meet">

<g transform="translate(0.000000,53.000000) scale(0.100000,-0.100000)"
fill="#000000" stroke="none">
<path d="M126 458 c-12 -16 -16 -47 -16 -109 0 -82 -1 -86 -26 -97 -30 -14
-57 -73 -48 -107 15 -61 111 -97 160 -60 13 10 46 14 111 15 120 0 123 3 123
155 l0 111 -58 57 -58 57 -86 0 c-78 0 -88 -2 -102 -22z m166 -60 l3 -53 48
-3 48 -3 -3 -102 -3 -102 -72 -3 -73 -3 -1 28 -1 28 -9 -32 c-11 -39 -53 -73
-90 -73 -42 0 -89 45 -89 85 0 72 49 93 228 94 62 1 83 4 80 14 -3 8 -32 13
-86 15 -67 2 -83 0 -88 -13 -3 -8 -12 -15 -20 -15 -11 0 -14 19 -14 88 0 49 3
92 7 95 3 4 35 7 69 7 l63 0 3 -52z m53 2 c18 -19 17 -20 -3 -20 -15 0 -22 6
-22 20 0 11 2 20 3 20 2 0 12 -9 22 -20z"/>
<path d="M187 353 c-15 -15 -5 -23 28 -23 24 0 35 5 35 15 0 15 -50 22 -63 8z"/>
<path d="M188 203 c-38 -37 -50 -45 -60 -35 -20 20 -32 13 -13 -8 18 -19 18
-19 66 21 40 33 50 38 55 25 8 -21 128 -24 122 -3 -3 7 -28 13 -66 15 -48 2
-60 6 -55 17 8 23 1 18 -49 -32z"/>
</g>
</svg>
