<svg width="32" height="20" viewBox="0 0 32 20" fill="none" xmlns="http://www.w3.org/2000/svg">
<path fill-rule="evenodd" clip-rule="evenodd" d="M2.476 2.43744C2.05337 2.69753 2 2.92449 2 3V17C2 17.0755 2.05337 17.3025 2.476 17.5626C2.88246 17.8127 3.50713 18 4.25 18H27C27.7429 18 28.3675 17.8127 28.774 17.5626C29.1966 17.3025 29.25 17.0755 29.25 17V3C29.25 2.92449 29.1966 2.69753 28.774 2.43744C28.3675 2.18732 27.7429 2 27 2H4.25C3.50713 2 2.88246 2.18732 2.476 2.43744ZM1.42781 0.734128C2.19762 0.260397 3.19794 0 4.25 0H27C28.0521 0 29.0524 0.260397 29.8222 0.734128C30.5758 1.1979 31.25 1.97094 31.25 3V17C31.25 18.0291 30.5758 18.8021 29.8222 19.2659C29.0524 19.7396 28.0521 20 27 20H4.25C3.19794 20 2.19762 19.7396 1.42781 19.2659C0.674168 18.8021 0 18.0291 0 17V3C0 1.97094 0.674168 1.1979 1.42781 0.734128ZM15 16.3333C15 16.0572 15.2239 15.8333 15.5 15.8333H21.875C22.1511 15.8333 22.375 16.0572 22.375 16.3333C22.375 16.6095 22.1511 16.8333 21.875 16.8333H15.5C15.2239 16.8333 15 16.6095 15 16.3333ZM19.0302 5.69743C19.2162 5.52235 19.4746 5.41912 19.75 5.41912C19.8857 5.41912 20.0195 5.44431 20.1434 5.49262C20.2673 5.54092 20.378 5.61098 20.4698 5.69743C20.5616 5.78383 20.6327 5.88474 20.6806 5.99355C20.7284 6.10227 20.7526 6.21763 20.7526 6.33333C20.7526 6.44903 20.7284 6.5644 20.6806 6.67312C20.6327 6.78193 20.5616 6.88284 20.4698 6.96923L11.7133 15.2107L9.82236 15.6556L10.2799 13.933L19.0302 5.69743ZM19.75 4.41912C19.2283 4.41912 18.7224 4.61388 18.3448 4.96923L9.49065 13.3026C9.42273 13.3665 9.37404 13.4482 9.35009 13.5383L8.64176 16.205C8.59665 16.3748 8.64398 16.5558 8.76644 16.6818C8.88889 16.8078 9.06849 16.8603 9.23952 16.82L12.0729 16.1534C12.1584 16.1333 12.2371 16.091 12.301 16.0308L21.1552 7.69743C21.3424 7.52118 21.4927 7.31029 21.5959 7.07594C21.699 6.8415 21.7526 6.58907 21.7526 6.33333C21.7526 6.0776 21.699 5.82517 21.5959 5.59073C21.4927 5.35638 21.3424 5.14548 21.1552 4.96923C20.968 4.79304 20.7474 4.65477 20.5066 4.56092C20.2659 4.46709 20.0089 4.41912 19.75 4.41912Z" fill="#2F363D"/>
</svg>
