<svg width="32" height="32" viewBox="0 0 32 32" fill="none" xmlns="http://www.w3.org/2000/svg">
<path d="M20 21V19C20 17.9391 19.5786 16.9217 18.8284 16.1716C18.0783 15.4214 17.0609 15 16 15H8C6.93913 15 5.92172 15.4214 5.17157 16.1716C4.42143 16.9217 4 17.9391 4 19V21" stroke="#2F363D" stroke-width="2" stroke-linecap="round" stroke-linejoin="round"/>
<path d="M12 11C14.2091 11 16 9.20914 16 7C16 4.79086 14.2091 3 12 3C9.79086 3 8 4.79086 8 7C8 9.20914 9.79086 11 12 11Z" stroke="#2F363D" stroke-width="2" stroke-linecap="round" stroke-linejoin="round"/>
<g clip-path="url(#clip0_34_2114)">
<path d="M22 24.5C23.3807 24.5 24.5 23.3807 24.5 22C24.5 20.6193 23.3807 19.5 22 19.5C20.6193 19.5 19.5 20.6193 19.5 22C19.5 23.3807 20.6193 24.5 22 24.5Z" stroke="#2F363D" stroke-linecap="round" stroke-linejoin="round"/>
<path d="M28.1667 24.5C28.0557 24.7513 28.0227 25.0302 28.0717 25.3005C28.1207 25.5708 28.2496 25.8203 28.4417 26.0167L28.4917 26.0667C28.6466 26.2214 28.7696 26.4053 28.8534 26.6076C28.9373 26.8099 28.9805 27.0268 28.9805 27.2458C28.9805 27.4649 28.9373 27.6817 28.8534 27.8841C28.7696 28.0864 28.6466 28.2702 28.4917 28.425C28.3369 28.58 28.1531 28.7029 27.9507 28.7868C27.7484 28.8706 27.5315 28.9138 27.3125 28.9138C27.0935 28.9138 26.8766 28.8706 26.6743 28.7868C26.4719 28.7029 26.2881 28.58 26.1333 28.425L26.0833 28.375C25.8869 28.1829 25.6375 28.054 25.3672 28.005C25.0968 27.956 24.818 27.9891 24.5667 28.1C24.3202 28.2056 24.11 28.381 23.9619 28.6046C23.8139 28.8282 23.7344 29.0902 23.7333 29.3583V29.5C23.7333 29.942 23.5577 30.3659 23.2452 30.6785C22.9326 30.9911 22.5087 31.1667 22.0667 31.1667C21.6246 31.1667 21.2007 30.9911 20.8882 30.6785C20.5756 30.3659 20.4 29.942 20.4 29.5V29.425C20.3936 29.1492 20.3043 28.8817 20.1438 28.6572C19.9833 28.4328 19.7589 28.2619 19.5 28.1667C19.2487 28.0557 18.9698 28.0226 18.6995 28.0717C18.4292 28.1207 18.1797 28.2495 17.9833 28.4417L17.9333 28.4917C17.7785 28.6466 17.5947 28.7696 17.3924 28.8534C17.1901 28.9373 16.9732 28.9805 16.7542 28.9805C16.5351 28.9805 16.3183 28.9373 16.1159 28.8534C15.9136 28.7696 15.7298 28.6466 15.575 28.4917C15.42 28.3369 15.2971 28.1531 15.2132 27.9507C15.1294 27.7484 15.0862 27.5315 15.0862 27.3125C15.0862 27.0935 15.1294 26.8766 15.2132 26.6743C15.2971 26.4719 15.42 26.2881 15.575 26.1333L15.625 26.0833C15.8171 25.8869 15.946 25.6375 15.995 25.3672C16.044 25.0968 16.0109 24.818 15.9 24.5667C15.7944 24.3202 15.619 24.11 15.3954 23.9619C15.1718 23.8139 14.9098 23.7344 14.6417 23.7333H14.5C14.058 23.7333 13.6341 23.5577 13.3215 23.2452C13.0089 22.9326 12.8333 22.5087 12.8333 22.0667C12.8333 21.6246 13.0089 21.2007 13.3215 20.8882C13.6341 20.5756 14.058 20.4 14.5 20.4H14.575C14.8508 20.3935 15.1183 20.3043 15.3428 20.1438C15.5672 19.9832 15.7381 19.7589 15.8333 19.5C15.9443 19.2486 15.9774 18.9698 15.9283 18.6995C15.8793 18.4292 15.7505 18.1797 15.5583 17.9833L15.5083 17.9333C15.3534 17.7785 15.2304 17.5947 15.1466 17.3924C15.0627 17.1901 15.0195 16.9732 15.0195 16.7542C15.0195 16.5351 15.0627 16.3183 15.1466 16.1159C15.2304 15.9136 15.3534 15.7298 15.5083 15.575C15.6631 15.42 15.8469 15.2971 16.0493 15.2132C16.2516 15.1294 16.4685 15.0862 16.6875 15.0862C16.9065 15.0862 17.1234 15.1294 17.3257 15.2132C17.5281 15.2971 17.7119 15.42 17.8667 15.575L17.9167 15.625C18.1131 15.8171 18.3625 15.946 18.6328 15.995C18.9032 16.044 19.182 16.0109 19.4333 15.9H19.5C19.7465 15.7944 19.9567 15.619 20.1047 15.3954C20.2528 15.1718 20.3323 14.9098 20.3333 14.6417V14.5C20.3333 14.058 20.5089 13.634 20.8215 13.3215C21.1341 13.0089 21.558 12.8333 22 12.8333C22.442 12.8333 22.866 13.0089 23.1785 13.3215C23.4911 13.634 23.6667 14.058 23.6667 14.5V14.575C23.6677 14.8432 23.7472 15.1051 23.8953 15.3287C24.0433 15.5523 24.2535 15.7277 24.5 15.8333C24.7513 15.9443 25.0302 15.9773 25.3005 15.9283C25.5708 15.8793 25.8203 15.7504 26.0167 15.5583L26.0667 15.5083C26.2215 15.3534 26.4053 15.2304 26.6076 15.1466C26.8099 15.0627 27.0268 15.0195 27.2458 15.0195C27.4649 15.0195 27.6817 15.0627 27.8841 15.1466C28.0864 15.2304 28.2702 15.3534 28.425 15.5083C28.58 15.6631 28.7029 15.8469 28.7868 16.0493C28.8706 16.2516 28.9138 16.4685 28.9138 16.6875C28.9138 16.9065 28.8706 17.1234 28.7868 17.3257C28.7029 17.5281 28.58 17.7119 28.425 17.8667L28.375 17.9167C28.1829 18.1131 28.054 18.3625 28.005 18.6328C27.956 18.9032 27.9891 19.182 28.1 19.4333V19.5C28.2056 19.7465 28.381 19.9567 28.6046 20.1047C28.8282 20.2528 29.0902 20.3323 29.3583 20.3333H29.5C29.942 20.3333 30.366 20.5089 30.6785 20.8215C30.9911 21.134 31.1667 21.558 31.1667 22C31.1667 22.442 30.9911 22.8659 30.6785 23.1785C30.366 23.4911 29.942 23.6667 29.5 23.6667H29.425C29.1568 23.6677 28.8949 23.7472 28.6713 23.8953C28.4477 24.0433 28.2723 24.2535 28.1667 24.5Z" stroke="#2F363D" stroke-linecap="round" stroke-linejoin="round"/>
</g>
<defs>
<clipPath id="clip0_34_2114">
<rect width="20" height="20" fill="white" transform="translate(12 12)"/>
</clipPath>
</defs>
</svg>
